<?xml version="1.0" standalone="no"?>
<!DOCTYPE svg PUBLIC "-//W3C//DTD SVG 20010904//EN"
 "http://www.w3.org/TR/2001/REC-SVG-20010904/DTD/svg10.dtd">
<svg version="1.0" xmlns="http://www.w3.org/2000/svg"
 width="366.000000pt" height="366.000000pt" viewBox="0 0 366.000000 366.000000"
 preserveAspectRatio="xMidYMid meet">
<metadata>
Created by potrace 1.11, written by Peter Selinger 2001-2013
</metadata>
<g transform="translate(0.000000,366.000000) scale(0.100000,-0.100000)"
fill="#000000" stroke="none">
<path d="M1770 3613 c-760 -33 -1408 -525 -1638 -1244 -59 -184 -85 -356 -84
-554 1 -116 6 -175 28 -305 30 -187 118 -420 226 -598 29 -48 56 -91 60 -97 4
-5 27 -35 50 -65 135 -176 296 -322 480 -436 171 -106 420 -205 573 -230 22
-3 42 -7 45 -9 3 -2 33 -7 65 -10 33 -4 69 -9 80 -11 28 -6 288 -5 355 1 79 7
242 41 337 69 556 167 1001 606 1182 1166 12 36 23 74 26 85 31 149 45 221 50
275 7 69 8 311 1 345 -2 11 -7 46 -11 79 -37 308 -187 648 -394 896 -306 366
-766 605 -1223 636 -134 9 -147 9 -208 7z m240 -77 c56 -6 63 -7 172 -27 147
-26 411 -131 547 -217 282 -179 503 -423 641 -707 50 -104 103 -245 121 -324
6 -25 13 -55 15 -66 25 -108 38 -235 38 -375 -1 -95 -11 -237 -19 -250 -1 -3
-6 -26 -9 -51 -3 -25 -15 -79 -26 -120 -11 -41 -22 -81 -24 -89 -2 -8 -15 -44
-29 -80 -153 -403 -442 -728 -821 -924 -646 -335 -1441 -221 -1968 282 -257
245 -442 583 -502 917 -3 17 -8 41 -11 54 -31 154 -24 428 15 619 129 635 625
1154 1254 1312 105 26 142 33 246 46 25 3 46 7 47 8 5 4 261 -2 313 -8z"/>
<path d="M1231 2937 c-19 -19 -12 -38 20 -49 22 -8 28 -13 20 -21 -9 -9 -17
-8 -31 1 -17 11 -20 10 -20 -8 0 -15 7 -20 28 -20 55 0 71 45 22 61 -16 6 -30
15 -30 20 0 12 27 11 35 -1 10 -16 25 -11 25 8 0 14 -8 19 -29 20 -15 0 -33
-4 -40 -11z"/>
<path d="M1331 2932 c9 -14 8 -25 -5 -50 -21 -40 -21 -42 9 -42 26 0 34 15 13
23 -7 3 -1 6 14 6 20 1 26 -3 22 -14 -5 -13 6 -15 70 -15 74 0 76 1 76 25 0
14 -4 25 -10 25 -5 0 -10 -7 -10 -15 0 -8 -9 -15 -20 -15 -16 0 -20 7 -20 35
0 19 5 35 10 35 6 0 10 5 10 10 0 6 -13 10 -30 10 -16 0 -30 -4 -30 -10 0 -5
5 -10 10 -10 6 0 10 -15 10 -34 0 -62 -28 -56 -55 12 -15 36 -21 42 -46 42
-26 0 -28 -2 -18 -18z m43 -27 c3 -9 0 -15 -9 -15 -9 0 -12 6 -9 15 4 8 7 15
9 15 2 0 5 -7 9 -15z"/>
<path d="M1550 2940 c0 -5 7 -10 15 -10 10 0 15 -11 15 -35 0 -24 -5 -35 -15
-35 -8 0 -15 -4 -15 -10 0 -5 18 -10 40 -10 22 0 40 5 40 10 0 6 -7 10 -15 10
-10 0 -15 11 -15 35 0 24 5 35 15 35 8 0 15 5 15 10 0 6 -18 10 -40 10 -22 0
-40 -4 -40 -10z"/>
<path d="M1640 2947 c0 -13 52 -107 59 -107 5 0 17 20 27 45 13 36 22 45 40
45 22 0 23 -2 12 -27 -7 -16 -15 -32 -20 -38 -14 -16 -9 -25 17 -25 26 0 34
15 13 23 -7 3 -1 6 14 6 20 1 26 -3 22 -14 -5 -11 1 -15 20 -15 14 0 26 5 26
10 0 6 -4 10 -9 10 -4 0 -16 20 -25 44 l-17 45 -55 0 c-44 0 -54 -3 -50 -15 3
-8 1 -27 -5 -42 l-11 -27 -12 30 c-7 17 -9 32 -4 33 18 8 7 22 -17 22 -14 0
-25 -1 -25 -3z m174 -42 c3 -9 0 -15 -9 -15 -9 0 -12 6 -9 15 4 8 7 15 9 15 2
0 5 -7 9 -15z"/>
<path d="M1985 2895 c0 -53 1 -55 28 -55 15 0 27 5 27 10 0 6 -7 10 -15 10 -8
0 -15 7 -15 15 0 9 6 12 15 9 11 -4 15 0 15 16 0 16 -4 20 -15 16 -8 -3 -15
-1 -15 4 0 15 40 12 56 -4 8 -8 14 -21 14 -29 0 -20 33 -47 58 -47 11 0 27 9
35 20 l14 20 18 -20 c23 -25 57 -26 78 -2 22 24 21 55 -1 75 -25 23 -55 21
-77 -3 l-18 -20 -14 20 c-17 24 -50 26 -75 3 -17 -15 -18 -15 -18 0 0 14 -10
17 -47 17 l-48 0 0 -55z m179 13 c15 -24 -13 -53 -43 -43 -23 7 -28 34 -9 53
16 16 38 12 52 -10z m110 0 c15 -24 -13 -53 -43 -43 -23 7 -28 34 -9 53 16 16
38 12 52 -10z"/>
<path d="M2305 2895 l0 -55 37 0 c42 0 68 21 68 54 0 32 -30 56 -71 56 l-34 0
0 -55z m80 16 c9 -28 -5 -51 -31 -51 -21 0 -24 5 -24 35 0 30 3 35 24 35 15 0
27 -7 31 -19z"/>
<path d="M2405 2666 c-6 -7 -70 -86 -143 -176 -164 -200 -222 -282 -228 -318
-2 -15 2 -50 11 -77 l15 -50 -95 -140 c-52 -77 -105 -152 -117 -168 l-23 -27
-110 160 c-60 88 -111 167 -113 176 -2 8 1 20 7 27 20 25 24 111 7 175 -25
100 -62 161 -150 247 -91 90 -186 145 -263 152 -67 7 -86 -16 -91 -106 -8
-135 65 -317 168 -420 71 -70 136 -103 217 -110 l62 -6 120 -169 121 -169 -37
-51 c-158 -219 -233 -307 -354 -412 -60 -53 -119 -109 -131 -126 -20 -29 -21
-35 -10 -87 13 -63 37 -89 79 -85 15 1 40 2 55 3 49 2 76 44 139 216 32 87 68
159 121 245 58 94 163 250 168 250 6 -1 130 -192 190 -295 26 -44 71 -142 101
-219 62 -161 86 -192 153 -197 74 -6 87 1 107 58 26 78 14 109 -73 185 -180
158 -268 256 -407 455 l-43 62 124 173 123 172 52 2 c62 1 92 19 138 82 61 83
277 451 273 465 -2 8 -73 -84 -158 -205 -85 -121 -157 -221 -160 -223 -3 -2
-12 0 -18 4 -12 7 31 73 274 425 18 27 31 52 28 55 -3 3 -8 0 -12 -6 -4 -6
-18 -25 -32 -43 -13 -17 -31 -42 -40 -55 -77 -119 -248 -344 -259 -342 -8 1
-15 5 -15 9 -1 3 69 109 154 234 167 246 166 244 153 244 -4 0 -80 -101 -168
-224 -88 -124 -165 -227 -172 -230 -36 -15 -5 42 124 229 80 116 149 218 154
228 11 20 -2 23 -16 3z"/>
<path d="M650 1063 c-63 -42 -110 -78 -103 -80 6 -2 32 11 57 29 l47 32 22
-27 c12 -15 33 -28 47 -29 25 -2 79 27 81 43 1 5 2 15 3 22 2 10 -31 87 -37
87 -1 0 -54 -35 -117 -77z m130 21 c17 -30 7 -51 -33 -74 -25 -14 -28 -13 -54
13 -24 24 -26 29 -12 37 9 5 27 18 40 29 32 27 43 26 59 -5z"/>
<path d="M2880 1123 c0 -5 8 -21 18 -38 10 -16 23 -43 30 -58 l12 -28 -73 7
c-39 3 -68 2 -64 -2 4 -4 41 -11 82 -15 65 -6 82 -12 126 -44 27 -21 53 -35
56 -31 4 3 4 7 2 9 -92 64 -116 88 -143 145 -26 54 -46 78 -46 55z"/>
<path d="M819 1018 c-8 -7 -54 -46 -102 -87 -49 -40 -86 -75 -83 -78 3 -3 26
12 52 33 l46 38 19 -23 c27 -33 24 -44 -21 -85 -40 -36 -47 -46 -32 -46 15 0
82 70 82 85 0 8 3 15 8 16 69 7 111 61 86 110 -20 40 -39 52 -55 37z m51 -67
c0 -19 -47 -61 -69 -61 -10 0 -26 9 -37 21 -19 21 -19 21 25 61 l45 39 18 -23
c10 -13 18 -29 18 -37z"/>
<path d="M1567 1003 c-4 -3 -7 -18 -7 -31 0 -29 6 -27 12 3 2 11 14 23 28 26
l25 7 -26 1 c-14 0 -29 -2 -32 -6z"/>
<path d="M1643 1003 c-22 -8 -14 -48 13 -72 26 -22 29 -51 6 -59 -6 -2 -16 7
-21 20 -10 23 -10 23 -10 1 -1 -22 30 -40 49 -28 20 12 10 54 -16 71 -16 11
-24 24 -22 37 4 30 26 33 38 5 l10 -23 -3 25 c-2 24 -20 34 -44 23z"/>
<path d="M1712 1003 c9 -2 19 -12 21 -21 4 -16 5 -16 6 0 0 9 11 19 24 21 12
2 2 4 -23 4 -25 1 -37 -1 -28 -4z"/>
<path d="M1857 1003 c-4 -3 -7 -13 -7 -22 0 -11 3 -10 15 5 12 16 16 17 24 5
11 -17 5 -37 -21 -70 -28 -36 -24 -61 10 -60 23 2 24 2 5 6 -24 5 -31 27 -12
39 6 3 18 22 26 41 11 27 11 38 2 49 -12 15 -31 18 -42 7z"/>
<path d="M1925 999 c-9 -13 -8 -93 1 -121 8 -25 34 -19 45 10 6 15 5 21 -1 17
-6 -3 -10 -13 -10 -21 0 -9 -6 -14 -12 -11 -17 5 -18 119 -1 124 6 2 14 -6 16
-19 5 -21 5 -21 4 2 -2 26 -30 39 -42 19z"/>
<path d="M1996 994 c-9 -24 -7 -31 4 -14 7 11 10 -6 11 -55 1 -38 4 -57 6 -42
4 23 9 28 24 24 16 -4 18 -3 9 8 -9 11 -7 19 12 38 12 13 24 31 24 40 3 29
-10 19 -30 -24 -27 -56 -36 -57 -36 -5 0 46 -12 61 -24 30z"/>
<path d="M2747 942 c-15 -15 -27 -31 -27 -34 0 -11 199 -178 203 -170 2 4 -15
23 -39 42 -23 19 -43 38 -43 43 -1 12 38 47 54 47 8 0 33 -16 55 -36 22 -20
40 -32 40 -26 0 17 -69 72 -91 72 -12 0 -23 10 -29 26 -13 33 -49 63 -76 64
-11 0 -32 -13 -47 -28z m109 -35 c7 -22 -14 -67 -30 -67 -6 0 -29 16 -51 35
l-40 35 28 25 c28 25 29 25 58 8 16 -10 32 -26 35 -36z"/>
<path d="M2077 953 c-10 -9 -9 -23 1 -23 5 0 9 7 9 15 0 17 -1 18 -10 8z"/>
<path d="M1730 940 c0 -5 5 -10 11 -10 5 0 7 5 4 10 -3 6 -8 10 -11 10 -2 0
-4 -4 -4 -10z"/>
<path d="M1966 933 c-6 -14 -5 -15 5 -6 7 7 10 15 7 18 -3 3 -9 -2 -12 -12z"/>
<path d="M1560 932 c0 -5 14 -7 30 -4 17 2 30 6 30 8 0 2 -13 4 -30 4 -16 0
-30 -4 -30 -8z"/>
<path d="M835 837 c-44 -45 -84 -88 -89 -95 -8 -14 38 -72 58 -72 5 0 -4 15
-22 33 l-32 33 38 37 c21 20 42 37 48 37 5 0 18 -11 28 -25 10 -14 24 -25 29
-25 6 0 -3 15 -21 33 l-32 33 39 38 c39 38 40 39 65 22 15 -9 26 -21 26 -26 0
-6 5 -10 12 -10 7 0 -3 16 -22 35 -19 19 -36 35 -39 34 -4 0 -42 -37 -86 -82z"/>
<path d="M2072 898 c5 -35 15 -46 14 -14 -1 14 -5 29 -10 33 -4 4 -6 -4 -4
-19z"/>
<path d="M1561 888 c-1 -25 2 -28 32 -27 29 2 29 2 5 6 -18 3 -28 12 -31 26
-4 18 -5 17 -6 -5z"/>
<path d="M2671 860 c-17 -17 -31 -34 -31 -38 1 -4 41 -49 89 -100 l89 -93 36
32 c20 17 34 34 31 37 -3 3 -19 -8 -36 -24 l-30 -29 -41 44 -40 45 34 28 c18
15 28 28 23 28 -6 0 -22 -11 -36 -24 l-26 -24 -38 38 c-35 36 -43 70 -16 70 6
0 15 9 21 20 15 27 8 25 -29 -10z"/>
<path d="M916 739 c-42 -55 -76 -105 -74 -110 2 -6 28 22 57 61 30 39 55 69
57 67 2 -2 -12 -42 -31 -90 -18 -48 -30 -87 -26 -87 5 0 19 8 32 18 64 48 129
93 129 89 0 -2 -25 -35 -55 -73 -30 -38 -50 -71 -44 -73 6 -2 15 3 20 10 12
21 38 55 96 128 29 36 49 67 43 69 -5 2 -49 -26 -97 -62 -48 -35 -89 -61 -91
-56 -2 4 15 52 38 105 22 54 40 99 40 101 0 18 -28 -11 -94 -97z"/>
<path d="M2617 813 c-3 -4 15 -53 39 -107 24 -55 43 -100 42 -102 -2 -1 -43
29 -91 68 -49 38 -91 67 -94 64 -4 -3 5 -14 18 -25 13 -10 60 -48 104 -85 98
-81 112 -85 81 -20 -8 16 -31 70 -51 119 -41 99 -41 100 -48 88z"/>
<path d="M1087 634 c-72 -111 -84 -134 -71 -134 12 0 147 217 142 229 -1 5
-34 -38 -71 -95z"/>
<path d="M2480 716 c0 -3 22 -37 48 -78 26 -40 58 -90 71 -110 12 -21 27 -38
33 -38 10 0 -3 23 -85 153 -42 65 -67 92 -67 73z"/>
<path d="M1122 607 c-29 -56 -52 -110 -52 -119 0 -10 12 -25 26 -35 23 -15 29
-15 51 -2 27 15 142 219 124 219 -5 0 -34 -45 -63 -100 -54 -102 -67 -115 -99
-105 -30 10 -22 44 35 148 30 53 49 97 43 97 -7 0 -36 -46 -65 -103z"/>
<path d="M2380 653 c0 -7 117 -222 125 -231 2 -2 25 9 51 24 26 15 42 30 36
32 -7 2 -27 -6 -46 -17 l-33 -21 -59 110 c-52 97 -74 127 -74 103z"/>
<path d="M1245 525 c-27 -69 -45 -128 -42 -132 4 -3 12 7 18 23 6 16 22 56 35
89 19 50 30 64 25 33 0 -4 -3 -46 -6 -95 l-5 -88 22 29 c13 15 42 53 66 83 23
31 42 53 42 50 0 -6 -60 -158 -68 -171 -2 -5 1 -7 8 -4 13 4 109 238 103 251
-5 8 -24 -14 -101 -116 -44 -58 -56 -66 -54 -37 1 14 14 149 17 178 8 62 -13
31 -60 -93z"/>
<path d="M2310 632 c-19 -9 -36 -17 -38 -18 -4 -2 30 -83 77 -186 l31 -67 40
18 c22 10 44 22 48 26 6 7 -2 6 -63 -11 -17 -4 -25 3 -41 40 -24 50 -23 52 26
73 19 8 30 17 24 19 -6 3 -26 -2 -44 -10 l-34 -14 -23 51 c-13 27 -22 51 -21
52 2 1 18 7 36 15 35 13 52 30 30 29 -7 0 -29 -8 -48 -17z"/>
<path d="M2168 583 c-10 -2 -18 -12 -18 -21 0 -13 46 -159 75 -239 6 -17 61 3
80 30 16 23 14 40 -17 132 -34 103 -51 116 -120 98z m97 -83 c14 -37 28 -84
32 -103 5 -32 2 -37 -26 -51 -25 -13 -32 -14 -36 -4 -3 7 -20 59 -39 115 l-34
102 26 9 c15 5 32 7 39 5 7 -3 24 -35 38 -73z"/>
<path d="M1539 549 c0 -8 -2 -21 -4 -29 -1 -8 -5 -31 -9 -50 -3 -19 -10 -58
-15 -86 -5 -28 -11 -55 -12 -60 -1 -5 -1 -16 0 -24 3 -22 19 21 26 72 4 24 8
44 9 45 1 1 18 -2 39 -7 21 -4 39 -4 43 1 3 5 -13 12 -36 15 -44 7 -48 18 -30
85 10 36 11 37 47 28 34 -7 53 -5 42 5 -2 2 -25 7 -51 11 -37 6 -48 4 -49 -6z"/>
<path d="M1957 542 c-17 -3 -18 -11 -13 -70 6 -56 15 -117 24 -154 1 -5 2 -18
2 -29 0 -19 4 -21 36 -16 50 8 64 23 64 70 0 57 -20 163 -34 182 -12 17 -47
24 -79 17z m59 -20 c17 -11 26 -49 38 -154 6 -53 -9 -78 -48 -78 -21 0 -24 6
-30 58 -4 31 -8 68 -11 82 -12 74 -12 89 -2 94 18 7 41 6 53 -2z"/>
<path d="M1676 525 c-17 -18 -24 -52 -30 -148 -4 -59 -2 -71 17 -91 19 -20 27
-22 53 -15 40 11 43 21 51 139 5 94 5 98 -18 114 -29 20 -53 20 -73 1z m72
-22 c9 -17 7 -101 -3 -168 -7 -47 -50 -70 -75 -40 -15 18 -8 172 9 204 14 26
57 28 69 4z"/>
<path d="M1820 523 c-18 -13 -20 -25 -20 -111 0 -58 5 -107 13 -122 27 -54
107 -24 107 40 0 39 -15 39 -16 -1 -2 -34 -28 -59 -55 -52 -25 7 -30 26 -35
125 -4 69 -1 89 12 102 40 40 74 6 74 -75 0 -32 4 -59 9 -59 13 0 5 128 -9
144 -16 21 -57 25 -80 9z"/>
</g>
</svg>
